<svg xmlns="http://www.w3.org/2000/svg" width="144.58" height="144.58" viewBox="0 0 144.58 144.58"><path d="M34.918,39.637a3.3,3.3,0,0,0,3.748-.535c1.071-1.071,1.606-2.677.535-3.748,0,0-10.71-14.458-10.71-14.993-1.606-1.606-4.819-1.071-6.961,1.071s-2.677,5.355-1.071,6.961C20.46,28.927,34.918,39.637,34.918,39.637Z" transform="translate(85.03 84.595)" fill="#fff"/><path d="M44.89,21.5c1.071,0,2.142-1.606,2.142-3.213s-1.071-3.213-2.142-3.213L26.684,12.4c-2.142,0-4.284,2.677-4.284,5.89s1.606,5.89,4.284,5.89C27.219,24.181,44.89,21.5,44.89,21.5Z" transform="translate(97.548 54)" fill="#fff"/><path d="M39.637,8.659A3.3,3.3,0,0,0,39.1,4.91c-1.071-1.071-2.677-1.606-3.748-.535,0,0-14.458,10.71-14.993,10.71-1.606,1.606-1.071,4.819,1.071,6.961s5.355,2.677,6.961,1.071C28.927,23.117,39.637,8.659,39.637,8.659Z" transform="translate(84.595 16.509)" fill="#fff"/><path d="M43.113,6.7a36.413,36.413,0,0,0,0,72.826,36.413,36.413,0,1,0,0-72.826Zm0,60.509a24.1,24.1,0,1,1,24.1-24.1A24,24,0,0,1,43.113,67.209Z" transform="translate(29.177 29.177)" fill="#fff"/><path d="M8.344,4.06C7.809,3.525,6.2,3.525,5.131,5.131A2.823,2.823,0,0,0,4.06,8.88S14.77,23.338,14.77,23.873c1.606,1.606,4.819,1.071,6.961-1.071s2.677-5.355,1.071-6.961C23.338,14.77,8.344,4.06,8.344,4.06Z" transform="translate(16.288 16.288)" fill="#fff"/><path d="M15.077,44.89c0,1.071,1.606,2.142,3.213,2.142S21.5,45.961,21.5,44.89l2.677-18.206c0-2.142-2.677-4.284-5.89-4.284s-5.89,2.142-5.89,4.284C12.4,27.219,15.077,44.89,15.077,44.89Z" transform="translate(54 97.548)" fill="#fff"/><path d="M21.5,2.142C21.5,1.071,19.9,0,18.29,0s-3.213,1.071-3.213,2.142L12.4,20.348c0,2.142,2.677,4.284,5.89,4.284s5.89-2.142,5.89-4.284C24.181,19.813,21.5,2.142,21.5,2.142Z" transform="translate(54)" fill="#fff"/><path d="M2.142,15.077C1.071,15.077,0,16.684,0,18.29S1.071,21.5,2.142,21.5l18.206,2.677c2.142,0,4.284-2.677,4.284-5.89s-1.606-5.89-4.284-5.89C19.813,12.4,2.142,15.077,2.142,15.077Z" transform="translate(0 54)" fill="#fff"/><path d="M4.06,35.353c-.535.535-.535,2.142,1.071,3.213C6.2,39.637,7.809,40.172,8.88,39.1c0,0,14.458-10.71,14.993-10.71,1.606-1.606,1.071-4.819-1.071-6.961s-5.355-2.677-6.961-1.071C14.77,20.36,4.06,35.353,4.06,35.353Z" transform="translate(16.288 84.595)" fill="#fff"/></svg>