<svg xmlns="http://www.w3.org/2000/svg" width="75.863" height="75.952" viewBox="0 0 75.863 75.952"><g transform="translate(-95.535 -58.046)"><path d="M134.657,133.98a37.976,37.976,0,1,1,4.153-75.561,3.958,3.958,0,0,1,3.208,5.175,13.649,13.649,0,0,1-.682,1.518c-5.535,11.271-5.589,19.787-.175,26.031a17.468,17.468,0,0,0,14.29,6.36A26.44,26.44,0,0,0,165.5,95.047a4.717,4.717,0,0,1,1.515-.456,3.958,3.958,0,0,1,4.373,4.222A37.86,37.86,0,0,1,134.657,133.98Zm-2.361-68a30.062,30.062,0,1,0,30.082,38.505,32.342,32.342,0,0,1-6.686.932,25.383,25.383,0,0,1-20.51-9.088C130.38,90.8,126.275,81.178,132.3,65.983Z" fill="#fff"/></g></svg>