<svg xmlns="http://www.w3.org/2000/svg" viewBox="0 0 27.02 18.83"><defs><style>.cls-1{fill:#fff;}</style></defs><g id="Layer_2" data-name="Layer 2"><g id="Capa_1" data-name="Capa 1"><path class="cls-1" d="M23.8,16.05a.37.37,0,0,0,.48-.09.37.37,0,0,0,.1-.48S23,13.58,23,13.56a.67.67,0,0,0-.92.16.68.68,0,0,0-.15.92Z"/><path class="cls-1" d="M26.76,9.76A.39.39,0,0,0,27,9.35a.38.38,0,0,0-.26-.4l-2.38-.36c-.29,0-.54.34-.54.76s.25.76.54.76Z"/><path class="cls-1" d="M24.38,3.22c.1-.11.06-.32-.1-.48a.37.37,0,0,0-.48-.09L21.89,4.07A.69.69,0,0,0,22,5c.3.3.71.37.92.16Z"/><path class="cls-1" d="M11.52,2.65a.37.37,0,0,0-.48.09.36.36,0,0,0-.09.48s1.39,1.89,1.41,1.93c.21.21.62.14.93-.16s.37-.71.14-.92C13.41,4,11.52,2.65,11.52,2.65Z"/><path class="cls-1" d="M18.05.27A.36.36,0,0,0,17.66,0c-.22,0-.4.12-.41.27,0,0-.36,2.32-.36,2.36,0,.3.34.54.77.54s.76-.24.76-.54C18.42,2.59,18.05.27,18.05.27Z"/><path class="cls-1" d="M22.35,9.35a4.7,4.7,0,0,0-8.73-2.41,6.46,6.46,0,0,0-9.79,4A4,4,0,0,0,0,14.87a4,4,0,0,0,4.14,4H16.08a6.2,6.2,0,0,0,2.58-.62,4.78,4.78,0,0,0,2.66-4.61,5.4,5.4,0,0,0-.13-1.15A4.76,4.76,0,0,0,22.35,9.35ZM18,16.75a4.82,4.82,0,0,1-1.9.5H4.14a2.45,2.45,0,0,1-2.53-2.37,2.44,2.44,0,0,1,2.53-2.34,1.33,1.33,0,0,1,.28,0,1.18,1.18,0,0,0,.69-.18,1.17,1.17,0,0,0,.19-.54,4.82,4.82,0,0,1,4.82-4.33A4.77,4.77,0,0,1,14,9.44a.47.47,0,0,1,.06.09,1.77,1.77,0,0,1,.12.17l.07.11a.81.81,0,0,0,.94.33A3.06,3.06,0,0,1,16.1,10a3.63,3.63,0,0,1,3.61,3.62A3.23,3.23,0,0,1,18,16.75ZM16.1,8.37a6.11,6.11,0,0,0-.86.07,6,6,0,0,0-.4-.46,3.12,3.12,0,0,1,5.93,1.37,3,3,0,0,1-.32,1.38A5.21,5.21,0,0,0,16.1,8.37Z"/></g></g></svg>