<svg xmlns="http://www.w3.org/2000/svg" viewBox="0 0 27.03 17.05"><defs><style>.cls-1{fill:#fff;}</style></defs><g id="Layer_2" data-name="Layer 2"><g id="Capa_1" data-name="Capa 1"><path class="cls-1" d="M27,5.17a.88.88,0,0,0-.32-.66A.91.91,0,0,0,26,4.33a.81.81,0,0,0-.29.12,2.93,2.93,0,0,1-1.38.39A1.87,1.87,0,0,1,23,4.26c-.64-.63-.7-1.59-.17-2.94a2,2,0,0,0,.09-.25.88.88,0,0,0-.15-.72A.86.86,0,0,0,22.1,0a5.27,5.27,0,0,0-.89,0,5.24,5.24,0,0,0-4.63,5A7.17,7.17,0,0,0,4.25,8.29,4.48,4.48,0,0,0,0,12.64a4.51,4.51,0,0,0,4.61,4.41H17.89a6.82,6.82,0,0,0,2.86-.7,5.29,5.29,0,0,0,2.95-5.12,5.8,5.8,0,0,0-.1-1.11A5.2,5.2,0,0,0,27,5.17Zm-7,9.56a5.18,5.18,0,0,1-2.12.55l-13.27,0a2.74,2.74,0,0,1-2.83-2.64,2.72,2.72,0,0,1,2.83-2.59l.31,0a1.19,1.19,0,0,0,.75-.2,1.08,1.08,0,0,0,.22-.6,5.39,5.39,0,0,1,5.36-4.82,5.3,5.3,0,0,1,4.32,2.14l.06.09a1.43,1.43,0,0,1,.14.2l.08.11a.88.88,0,0,0,1,.37,3.6,3.6,0,0,1,1-.18,4,4,0,0,1,4,4A3.57,3.57,0,0,1,20,14.73ZM23,8.5a5.83,5.83,0,0,0-4.71-3.07,3.5,3.5,0,0,1,2.53-3.58,3.74,3.74,0,0,0,.93,3.65,3.65,3.65,0,0,0,3.3,1A3.5,3.5,0,0,1,23,8.5Z"/></g></g></svg>