<svg xmlns="http://www.w3.org/2000/svg" width="133.06" height="80.523" viewBox="0 0 133.06 80.523"><path d="M217.363,20.521a20.141,20.141,0,0,0-5.4.491,40.264,40.264,0,0,0-71.194,15.712c-13.257.982-23.568,11.293-23.568,24.55,0,13.748,11.784,24.55,26.023,24.55h74.14a39.122,39.122,0,0,0,16.2-3.928c7.365-3.928,16.694-11.784,16.694-28.478C249.769,35.251,235.039,20.521,217.363,20.521Zm11.784,52.536A29.356,29.356,0,0,1,217.363,76h-74.14c-8.838,0-15.712-6.383-15.712-14.73,0-7.856,6.874-14.73,15.712-14.73H144.7s2.946,0,4.419-.982c.982-.982.982-3.437.982-3.437a30.276,30.276,0,0,1,29.951-27A29.548,29.548,0,0,1,204.106,26.9a.481.481,0,0,0,.491.491l.982.982.491.491c1.473,1.964,3.437,2.946,5.892,1.964a24.645,24.645,0,0,1,5.892-.982A22.845,22.845,0,0,1,240.44,52.435C239.949,62.746,236.512,69.129,229.147,73.057Z" transform="translate(-117.2 -5.3)" fill="#fff"/></svg>