<svg xmlns="http://www.w3.org/2000/svg" viewBox="0 0 27.02 15.17"><defs><style>.cls-1{fill:#fff;}</style></defs><g id="Layer_2" data-name="Layer 2"><g id="Capa_1" data-name="Capa 1"><path class="cls-1" d="M25.8,3.36A4.54,4.54,0,0,0,22.56,2,3.9,3.9,0,0,0,22,2a5.43,5.43,0,0,0-8.09-.42h0a7.07,7.07,0,0,0-9.7,4.94A4.41,4.41,0,0,0,0,10.84a4.43,4.43,0,0,0,4.54,4.33H17.61a6.59,6.59,0,0,0,2.82-.68A5,5,0,0,0,23.18,11,4.32,4.32,0,0,0,27,6.49,4.26,4.26,0,0,0,25.8,3.36ZM19.69,12.9a5.27,5.27,0,0,1-2.08.54H4.53a2.68,2.68,0,0,1-2.77-2.59A2.67,2.67,0,0,1,4.54,8.31h.3a1.19,1.19,0,0,0,.74-.19,1.06,1.06,0,0,0,.22-.59A5.29,5.29,0,0,1,11.08,2.8a5.21,5.21,0,0,1,4.25,2.1L15.4,5c0,.06.09.12.13.19l.07.11a.88.88,0,0,0,1,.36,3.5,3.5,0,0,1,1-.17,4,4,0,0,1,3.95,4A3.53,3.53,0,0,1,19.69,12.9Zm5.58-6.47a2.59,2.59,0,0,1-1.94,2.74,5.73,5.73,0,0,0-5.71-5.45,5.64,5.64,0,0,0-.93.08,7.05,7.05,0,0,0-1.24-1.26h0a3.72,3.72,0,0,1,5.4.94.86.86,0,0,0,1,.37,2.52,2.52,0,0,1,.73-.1,2.79,2.79,0,0,1,2,.84A2.56,2.56,0,0,1,25.27,6.43Z"/></g></g></svg>