<svg xmlns="http://www.w3.org/2000/svg" viewBox="0 0 27.02 22.29"><defs><style>.cls-1{fill:#fff;}</style></defs><g id="Layer_2" data-name="Layer 2"><g id="Capa_1" data-name="Capa 1"><path class="cls-1" d="M17.81,16.87a.83.83,0,0,1-.83.84h0a.84.84,0,0,1-.84-.84V15.18a.84.84,0,0,1,.84-.84h0a.83.83,0,0,1,.83.84Z"/><path class="cls-1" d="M17.81,21.39a.83.83,0,0,1-.83.83h0a.84.84,0,0,1-.84-.83v-1.7a.85.85,0,0,1,.84-.84h0a.84.84,0,0,1,.83.84Z"/><path class="cls-1" d="M10.88,16.94a.84.84,0,0,1-.84.84h0a.84.84,0,0,1-.83-.84v-1.7a.83.83,0,0,1,.83-.83h0a.83.83,0,0,1,.84.83Z"/><path class="cls-1" d="M10.88,21.46a.83.83,0,0,1-.84.83h0a.83.83,0,0,1-.83-.83v-1.7a.84.84,0,0,1,.83-.84h0a.84.84,0,0,1,.84.84Z"/><path class="cls-1" d="M14.35,16.94a.85.85,0,0,1-.84.84h0a.85.85,0,0,1-.84-.84v-1.7a.84.84,0,0,1,.84-.83h0a.84.84,0,0,1,.84.83Z"/><path class="cls-1" d="M14.35,21.46a.84.84,0,0,1-.84.83h0a.84.84,0,0,1-.84-.83v-1.7a.85.85,0,0,1,.84-.84h0a.85.85,0,0,1,.84.84Z"/><path class="cls-1" d="M20.4,3.11a6.47,6.47,0,0,0-1.08.09A8.19,8.19,0,0,0,4.84,6.39a5.1,5.1,0,0,0-4.84,5,5.14,5.14,0,0,0,5.25,5h1v-2h-1a3.12,3.12,0,0,1-3.21-3,3.1,3.1,0,0,1,3.22-3l.35,0a1.44,1.44,0,0,0,.86-.22,1.32,1.32,0,0,0,.25-.69A6.13,6.13,0,0,1,12.83,2a6.05,6.05,0,0,1,4.92,2.43.76.76,0,0,0,.08.11L18,4.8l.08.13a1,1,0,0,0,1.19.42,3.82,3.82,0,0,1,1.16-.2A4.6,4.6,0,0,1,25,9.74a4.09,4.09,0,0,1-2.19,4,5.59,5.59,0,0,1-1.25.45v2.07a7.47,7.47,0,0,0,2.1-.68A6.05,6.05,0,0,0,27,9.74,6.64,6.64,0,0,0,20.4,3.11Z"/></g></g></svg>