<svg xmlns="http://www.w3.org/2000/svg" viewBox="0 0 27.03 22.51"><defs><style>.cls-1{fill:#fff;}</style></defs><g id="Layer_2" data-name="Layer 2"><g id="Capa_1" data-name="Capa 1"><path class="cls-1" d="M10.19,14.57h0a.35.35,0,0,0-.31-.18.36.36,0,0,0-.32.18h0l-.54,1a.86.86,0,0,0,1.72,0Z"/><path class="cls-1" d="M10.19,17.61h0a.35.35,0,0,0-.31-.18.36.36,0,0,0-.32.18h0l-.54,1a.86.86,0,0,0,1.72,0Z"/><path class="cls-1" d="M14.21,14.57h0a.38.38,0,0,0-.32-.18.35.35,0,0,0-.31.18h0l-.54,1a.86.86,0,0,0,1.72,0Z"/><path class="cls-1" d="M14.21,20.64h0a.41.41,0,0,0-.32-.18.37.37,0,0,0-.31.18h0l-.54,1a.86.86,0,0,0,1.72,0Z"/><path class="cls-1" d="M14.21,17.61h0a.38.38,0,0,0-.32-.18.35.35,0,0,0-.31.18h0l-.54,1a.86.86,0,0,0,1.72,0Z"/><path class="cls-1" d="M18.22,14.57h0a.35.35,0,0,0-.31-.18.37.37,0,0,0-.32.18h0l-.55,1a.87.87,0,0,0,1.73,0Z"/><path class="cls-1" d="M18.22,17.61h0a.35.35,0,0,0-.31-.18.37.37,0,0,0-.32.18h0l-.55,1a.87.87,0,0,0,1.73,0Z"/><path class="cls-1" d="M20.4,3.12a6.46,6.46,0,0,0-1.08.08A8.18,8.18,0,0,0,4.85,6.39a5.1,5.1,0,0,0-4.85,5,5.14,5.14,0,0,0,5.25,5h1v-2h-1a3.13,3.13,0,0,1-3.22-3,3.11,3.11,0,0,1,3.23-3l.35,0a1.44,1.44,0,0,0,.86-.22,1.32,1.32,0,0,0,.25-.69,6.16,6.16,0,0,1,11-3.06,1,1,0,0,0,.08.11L18,4.8l.09.14a1,1,0,0,0,1.18.41,3.82,3.82,0,0,1,1.16-.2A4.6,4.6,0,0,1,25,9.74a4.09,4.09,0,0,1-2.19,4,6.2,6.2,0,0,1-1.25.46v2.06a7.75,7.75,0,0,0,2.1-.67A6.08,6.08,0,0,0,27,9.74,6.64,6.64,0,0,0,20.4,3.12Z"/></g></g></svg>