<svg xmlns="http://www.w3.org/2000/svg" width="114.322" height="99.584" viewBox="0 0 114.322 99.584"><path d="M271.329,130.4H257.51c-1.256,0-2.931,2.094-3.35,3.35l-9.213,16.332c-.419,1.256,0,1.256,1.256,1.256h9.213L244.948,171.02c-.837,1.256-.419,2.094.419,1.256l23.869-22.613c.838-.837.838-2.094-.419-2.094h-9.632l13.4-15.075C273,131.238,273,130.4,271.329,130.4Z" transform="translate(-202.234 -73.03)" fill="#fff"/><path d="M319.827,129.682a17.179,17.179,0,0,0-4.606.419,34.341,34.341,0,0,0-60.72,13.4c-11.307.838-20.1,9.632-20.1,20.938,0,11.725,10.05,20.938,22.194,20.938h4.188V177h-4.188c-7.538,0-13.4-5.444-13.4-12.563,0-6.7,5.863-12.563,13.4-12.563h1.256a8.553,8.553,0,0,0,3.769-.837,7.287,7.287,0,0,0,1.256-2.931,25.822,25.822,0,0,1,25.545-23.032,25.2,25.2,0,0,1,20.519,10.05l.419.419.837.837.419.419c1.256,1.675,2.931,2.513,5.025,1.675a21.018,21.018,0,0,1,5.025-.838A19.485,19.485,0,0,1,339.928,156.9c0,7.957-2.931,13.4-9.213,16.751a43.6,43.6,0,0,1-5.025,2.094v8.794a30.791,30.791,0,0,0,8.794-2.931c6.281-3.35,14.238-10.05,14.238-24.288C347.466,141.826,334.9,129.682,319.827,129.682Z" transform="translate(-234.4 -116.7)" fill="#fff"/></svg>