<svg xmlns="http://www.w3.org/2000/svg" viewBox="0 0 27.02 21.11"><defs><style>.cls-1{fill:#fff;}</style></defs><g id="Layer_2" data-name="Layer 2"><g id="Capa_1" data-name="Capa 1"><path class="cls-1" d="M25.8,3.36A4.54,4.54,0,0,0,22.56,2,4,4,0,0,0,22,2a5.43,5.43,0,0,0-4.24-2,5.52,5.52,0,0,0-3.86,1.61A6.89,6.89,0,0,0,11.08,1a7,7,0,0,0-6.9,5.51A4.41,4.41,0,0,0,0,10.84a4.44,4.44,0,0,0,4.54,4.33h.27V13.46H4.54a2.7,2.7,0,0,1-2.78-2.6A2.67,2.67,0,0,1,4.54,8.31h.3a1.23,1.23,0,0,0,.75-.19,1.1,1.1,0,0,0,.21-.59,5.3,5.3,0,0,1,5.28-4.75,5.24,5.24,0,0,1,4.25,2.1l.06.1a1.33,1.33,0,0,1,.14.19l.07.11a.87.87,0,0,0,1,.36,3.81,3.81,0,0,1,1-.17,4,4,0,0,1,3.95,4,3.51,3.51,0,0,1-1.89,3.44,4.89,4.89,0,0,1-1.42.47v1.77a6.74,6.74,0,0,0,2.16-.64A5.07,5.07,0,0,0,23.18,11,4.32,4.32,0,0,0,27,6.49,4.26,4.26,0,0,0,25.8,3.36Zm-.53,3.07a2.6,2.6,0,0,1-1.94,2.74A5.69,5.69,0,0,0,16.69,3.8a7.05,7.05,0,0,0-1.24-1.26h0a3.65,3.65,0,0,1,2.28-.79,3.7,3.7,0,0,1,3.12,1.72.86.86,0,0,0,1,.37,2.92,2.92,0,0,1,.73-.1,2.78,2.78,0,0,1,2,.84A2.56,2.56,0,0,1,25.27,6.43Z"/><path class="cls-1" d="M11.21,14.39a1.08,1.08,0,1,0-1.07,1.07A1.07,1.07,0,0,0,11.21,14.39Z"/><path class="cls-1" d="M11.13,20a1.08,1.08,0,1,0-1.07,1.07A1.07,1.07,0,0,0,11.13,20Z"/><path class="cls-1" d="M11.13,17.21a1.08,1.08,0,1,0-1.07,1.08A1.07,1.07,0,0,0,11.13,17.21Z"/><path class="cls-1" d="M14.44,14.39a1.08,1.08,0,1,0-1.08,1.07A1.08,1.08,0,0,0,14.44,14.39Z"/><path class="cls-1" d="M14.36,20a1.08,1.08,0,1,0-1.08,1.07A1.08,1.08,0,0,0,14.36,20Z"/><path class="cls-1" d="M14.36,17.21a1.08,1.08,0,1,0-1.08,1.08A1.08,1.08,0,0,0,14.36,17.21Z"/><path class="cls-1" d="M8,14.39a1.08,1.08,0,1,0-1.08,1.07A1.08,1.08,0,0,0,8,14.39Z"/><path class="cls-1" d="M6.83,16.13a1.08,1.08,0,1,1-1.08,1.08A1.08,1.08,0,0,1,6.83,16.13Z"/><path class="cls-1" d="M17.63,14.39a1.08,1.08,0,1,0-1.08,1.07A1.08,1.08,0,0,0,17.63,14.39Z"/><path class="cls-1" d="M16.55,16.13a1.08,1.08,0,1,1-1.08,1.08A1.09,1.09,0,0,1,16.55,16.13Z"/></g></g></svg>