<svg xmlns="http://www.w3.org/2000/svg" viewBox="0 0 26.76 27.02"><defs><style>.cls-1{fill:#fff;}</style></defs><g id="Layer_2" data-name="Layer 2"><g id="Capa_1" data-name="Capa 1"><path class="cls-1" d="M22.75,0H15.54V2.73h7.21a1.37,1.37,0,1,0,0-2.73Z"/><path class="cls-1" d="M25.4,6.07H12.89V8.8H25.4a1.37,1.37,0,0,0,0-2.73Z"/><path class="cls-1" d="M21.68,12.15H12.31v2.73h9.37a1.37,1.37,0,0,0,0-2.73Z"/><path class="cls-1" d="M14.16,18.51h-5v2.74h5a1.37,1.37,0,1,0,0-2.74Z"/><path class="cls-1" d="M10.28,24.29H9.17V27h1.11a1.37,1.37,0,0,0,0-2.73Z"/><path class="cls-1" d="M1.37,0H15.92V2.73H1.37A1.37,1.37,0,1,1,1.37,0Z"/><path class="cls-1" d="M9.33,6.07h12.5V8.8H9.33a1.37,1.37,0,1,1,0-2.73Z"/><path class="cls-1" d="M5.37,12.15h9.37v2.73H5.37a1.37,1.37,0,0,1,0-2.73Z"/><path class="cls-1" d="M4.93,18.51h5v2.74h-5a1.37,1.37,0,1,1,0-2.74Z"/><path class="cls-1" d="M8.47,24.29h1.1V27H8.47a1.37,1.37,0,1,1,0-2.73Z"/></g></g></svg>