<svg xmlns="http://www.w3.org/2000/svg" width="51.496" height="69.472" viewBox="0 0 51.496 69.472"><path d="M245.819,406.97a25.748,25.748,0,0,0-25.749,25.747c0,14.222,25.749,43.725,25.749,43.725s25.747-29.5,25.747-43.725A25.749,25.749,0,0,0,245.819,406.97Zm0,1.648a24.1,24.1,0,0,1,24.1,24.1c0,13.309-24.1,41.054-24.1,41.054s-24.1-27.744-24.1-41.054A24.1,24.1,0,0,1,245.819,408.618Zm0,12.245a11.855,11.855,0,1,0,11.853,11.855,11.855,11.855,0,0,0-11.853-11.855Zm0,1.211a10.644,10.644,0,1,1-10.646,10.641,10.644,10.644,0,0,1,10.646-10.641Z" transform="translate(-220.07 -406.97)" fill="#fff"/></svg>
