<svg xmlns="http://www.w3.org/2000/svg" width="41.896" height="31.14" viewBox="0 0 41.896 31.14"><g transform="translate(-102.3 -190.24)"><path d="M372.213,264.31a11.089,11.089,0,0,1-11.023-11.153c0-6.16,5.112-12.713,11.177-18.227,5.829,5.356,10.87,12.067,10.87,18.227A11.089,11.089,0,0,1,372.213,264.31Z" transform="translate(-248.694 -42.93)" fill="#fff"/><path d="M413.8,339.37c-1.793.975-6.1,6.39-7.009,8.216a12.311,12.311,0,0,0-1.26,4.962c0,.821-.539,2.245.315,2.757.135.081.315,0,.473,0,1.132,0,1.645-.916,1.969-1.89,1.4-4.2,2.55-8.551,5.041-12.288.308-.462.823-1.076.63-1.654" transform="translate(-291.128 -143.257)" fill="rgba(255,255,255,0.53)"/><path d="M810.283,646.033c-.727.175-1.22,1.255-1.641,1.852-.6.853-.907,5.113,1.064,4.772a2.138,2.138,0,0,0,.918-.239c1.133-.834,2.979-6.989-.543-6.381" transform="translate(-678.087 -437.807)" fill="rgba(255,255,255,0.27)"/><path d="M871.606,205.112a5.785,5.785,0,0,1-5.916-5.646c0-3.118,2.743-6.435,6-9.226,3.128,2.711,5.833,6.108,5.833,9.226a5.785,5.785,0,0,1-5.916,5.646Z" transform="translate(-733.325 0)" fill="#fff"/><path d="M893.961,243.11a16.515,16.515,0,0,0-3.761,4.159,5.951,5.951,0,0,0-.676,2.512c0,.416-.289,1.136.169,1.4.072.041.169,0,.254,0,.607,0,.883-.464,1.057-.957a24.434,24.434,0,0,1,2.705-6.22c.165-.234.442-.545.338-.837" transform="translate(-756.133 -50.788)" fill="rgba(255,255,255,0.53)"/><path d="M106.277,492.376a4.223,4.223,0,0,1-3.977-4.432c0-2.448,1.844-5.052,4.032-7.244,2.1,2.129,3.921,4.8,3.921,7.244a4.223,4.223,0,0,1-3.977,4.432Z" transform="translate(0 -279.021)" fill="#fff"/><path d="M121.289,522.2a12.494,12.494,0,0,0-2.529,3.265,5.3,5.3,0,0,0-.455,1.972c0,.326-.194.892.114,1.1.049.032.114,0,.17,0,.408,0,.593-.364.71-.751a20.978,20.978,0,0,1,1.819-4.883c.111-.184.3-.428.227-.657" transform="translate(-15.317 -318.886)" fill="rgba(255,255,255,0.53)"/><path d="M264.319,644.076c-.262.07-.44.5-.592.736-.217.339-.327,2.032.384,1.9a.717.717,0,0,0,.331-.095c.409-.332,1.075-2.778-.2-2.536" transform="translate(-154.912 -435.948)" fill="rgba(255,255,255,0.27)"/></g></svg>