<?xml version="1.0" encoding="utf-8"?>
<!-- Generator: Adobe Illustrator 24.1.1, SVG Export Plug-In . SVG Version: 6.00 Build 0)  -->
<svg version="1.1" id="Layer_1" xmlns="http://www.w3.org/2000/svg" xmlns:xlink="http://www.w3.org/1999/xlink" x="0px" y="0px"
	 viewBox="0 0 238.3 220" style="enable-background:new 0 0 238.3 220;" xml:space="preserve">
<style type="text/css">
	.st0{fill:none;stroke:#FFFFFF;stroke-miterlimit:10;}
	.st1{fill:none;stroke:#FFFFFF;stroke-width:14.9;}
	.st2{fill:#FFFFFF;stroke:#FFFFFF;stroke-miterlimit:23.343;}
</style>
<path class="st0" d="M119.5,26.4c-0.2,0-0.4,0-0.7,0c-0.1,0-0.1,0-0.2,0c-0.7,0.1-1.3,0.5-1.6,1.1l-46.8,81.1l-46.8,81.2
	c-0.1,0.1-0.1,0.2-0.2,0.3c-0.5,0.8-0.5,1.6,0,2.3c0.4,0.8,1.2,1.2,2,1.2c0.1,0,0.1,0,0.2,0h187.5c0.1,0,0.1,0,0.2,0
	c0.9,0,1.6-0.4,2-1.2c0.4-0.7,0.4-1.6,0-2.3c-0.1-0.1-0.1-0.2-0.2-0.3L168,108.6l-46.8-81.1C120.9,26.9,120.2,26.5,119.5,26.4
	L119.5,26.4z"/>
<path class="st1" d="M120.2,21.5c-0.7-0.1-1.4-0.1-2.2,0.1h-0.1c-2.1,0.4-3.9,1.6-5,3.4v0.1l-46.8,81.1l-46.8,81.2
	c0,0.1-0.1,0.1-0.1,0.2c-1.4,2.3-1.4,5.1-0.1,7.4c1.3,2.3,3.8,3.7,6.4,3.7h0.1h187.5h0.1c2.7,0,5.1-1.3,6.4-3.7
	c1.3-2.3,1.3-5.1-0.1-7.4c0-0.1-0.1-0.1-0.1-0.2l-46.9-81.2l-47-81.2v-0.1C124.3,23,122.3,21.8,120.2,21.5L120.2,21.5z"/>
<g transform="matrix(2.3343 0 0 2.3343 -476.13 -41.524)">
	<path class="st2" d="M258.8,54c0.1-2,0.2-3.4,0.2-4.2c0-3.4-1.4-5.2-4-5.2s-4,1.7-4,5.2c0,1.2,0.1,2.6,0.2,4.2l2,27.5h3.5L258.8,54
		 M255,86.2c-2.2,0-4.1,1.8-4.1,4.1s1.9,4.1,4.1,4.1c2.3,0,4.1-1.9,4.1-4.1C259.1,88,257.3,86.2,255,86.2"/>
</g>
</svg>
